<?xml version="1.0" encoding="utf-8"?>
<!-- Generator: Adobe Illustrator 23.0.1, SVG Export Plug-In . SVG Version: 6.00 Build 0)  -->
<svg version="1.1" id="Layer_1" xmlns="http://www.w3.org/2000/svg" xmlns:xlink="http://www.w3.org/1999/xlink" x="0px" y="0px"
	 viewBox="0 0 338.41 103.07" style="enable-background:new 0 0 338.41 103.07;" xml:space="preserve">
<style type="text/css">
	.st0{fill:#006CFF;}
</style>
<path class="st0" d="M26.29,15.64c3.62,0,7.03,0.69,10.23,2.08c3.2,1.39,6,3.27,8.4,5.64c2.4,2.38,4.3,5.18,5.68,8.42
	c1.38,3.24,2.08,6.67,2.08,10.3V66.2c0,0.84-0.68,1.52-1.52,1.52H44c-0.84,0-1.52-0.68-1.52-1.52v-3.28
	c-2.24,1.7-4.72,3.04-7.43,4.02c-2.71,0.98-5.61,1.47-8.71,1.47c-3.63,0-7.05-0.69-10.25-2.08c-3.2-1.38-5.99-3.27-8.37-5.64
	c-2.38-2.38-4.26-5.16-5.64-8.37C0.69,49.13,0,45.71,0,42.08c0-3.63,0.69-7.06,2.07-10.3c1.38-3.23,3.26-6.04,5.63-8.42
	c2.37-2.38,5.15-4.26,8.35-5.64C19.25,16.34,22.66,15.64,26.29,15.64z M26.34,58.22c2.24,0,4.34-0.43,6.29-1.29
	c1.95-0.86,3.65-2.02,5.1-3.49c1.45-1.46,2.61-3.17,3.47-5.13c0.86-1.96,1.29-4.03,1.29-6.23c0-2.26-0.43-4.37-1.29-6.32
	c-0.86-1.96-2.01-3.67-3.47-5.13c-1.45-1.46-3.15-2.62-5.1-3.49c-1.95-0.86-4.04-1.3-6.29-1.3c-2.24,0-4.34,0.43-6.29,1.3
	c-1.95,0.86-3.65,2.03-5.1,3.49c-1.45,1.46-2.61,3.17-3.46,5.13c-0.86,1.96-1.29,4.07-1.29,6.32c0,2.19,0.43,4.27,1.29,6.23
	c0.86,1.96,2.01,3.67,3.46,5.13c1.45,1.46,3.15,2.62,5.1,3.49C21.99,57.79,24.09,58.22,26.34,58.22z"/>
<path class="st0" d="M70.29,17.07V66.3c0,0.84-0.68,1.52-1.52,1.52h-7.15c-0.84,0-1.52-0.68-1.52-1.52V17.07
	c0-0.84,0.68-1.52,1.52-1.52h7.15C69.61,15.54,70.29,16.23,70.29,17.07z"/>
<path class="st0" d="M112.67,19.44c1.82,1.19,3.43,2.63,4.82,4.31c0.53,0.64,0.4,1.61-0.26,2.13l-4.56,3.63l-0.97,0.8
	c-0.63,0.51-1.55,0.45-2.08-0.16c-0.98-1.13-2.15-2.07-3.53-2.82c-1.82-0.99-3.78-1.49-5.89-1.49c-1.72,0-3.33,0.33-4.85,0.99
	c-1.52,0.66-2.84,1.55-3.96,2.67c-1.12,1.12-2.01,2.44-2.67,3.96c-0.66,1.52-0.99,3.14-0.99,4.85v18.81v9.07
	c0,0.84-0.68,1.52-1.52,1.52h-7.15c-0.84,0-1.52-0.68-1.52-1.52V38.26V17.17c0-0.84,0.68-1.52,1.52-1.52h7.15
	c0.84,0,1.52,0.68,1.52,1.52v2.28c1.78-1.2,3.73-2.13,5.84-2.8c2.11-0.67,4.32-1,6.63-1c2.31,0,4.52,0.33,6.63,1
	C108.94,17.31,110.89,18.24,112.67,19.44z"/>
<path class="st0" d="M58.87,4.38l5.47,5.47c0.47,0.47,1.24,0.47,1.71,0l5.47-5.47c0.5-0.5,0.55-1.28,0.11-1.83
	C70.78,1.47,68.93,0,65.2,0c-3.74,0-5.58,1.47-6.43,2.54C58.33,3.09,58.38,3.88,58.87,4.38z"/>
<g>
	<g>
		<path class="st0" d="M274.18,64.06c0.66-0.37,1.36-0.81,1.99-1.25c9.2-6.1,19.04-17.03,21.95-20.37c0.5-0.57,0.5-1.42,0-2
			c-2.91-3.34-12.75-14.28-21.95-20.37c-0.63-0.44-1.33-0.87-1.99-1.25c-3.97-2.24-8.47-3.38-13.49-3.38
			c-7.5,0-13.83,2.53-18.99,7.5c-5.16,4.97-7.79,11.2-7.79,18.5c0,7.3,2.63,13.54,7.79,18.5c5.16,4.97,11.49,7.5,18.99,7.5
			C265.71,67.45,270.21,66.31,274.18,64.06z M272.17,53.14c-3.1,3.1-6.93,4.65-11.48,4.65c-4.65,0-8.48-1.55-11.59-4.65
			c-3-3.21-4.55-7.03-4.55-11.69c0-4.66,1.55-8.48,4.55-11.59c3.1-3.21,6.93-4.76,11.59-4.76c4.55,0,8.38,1.55,11.48,4.76
			c3.1,3.1,4.66,6.93,4.66,11.59C276.83,46.1,275.28,49.93,272.17,53.14z"/>
	</g>
</g>
<g>
	<g>
		<path class="st0" d="M189.58,18.83c-0.66,0.37-1.36,0.81-1.99,1.25c-9.2,6.1-19.04,17.03-21.95,20.37c-0.5,0.57-0.5,1.42,0,2
			c2.91,3.34,12.75,14.28,21.95,20.37c0.63,0.44,1.33,0.87,1.99,1.25c3.97,2.24,8.47,3.38,13.49,3.38c7.5,0,13.83-2.53,18.99-7.5
			c5.16-4.97,7.79-11.2,7.79-18.5c0-7.3-2.63-13.54-7.79-18.5c-5.16-4.97-11.49-7.5-18.99-7.5
			C198.04,15.44,193.55,16.59,189.58,18.83z M191.58,29.76c3.1-3.1,6.93-4.65,11.48-4.65c4.65,0,8.48,1.55,11.59,4.65
			c3,3.21,4.55,7.03,4.55,11.69c0,4.66-1.55,8.48-4.55,11.59c-3.1,3.21-6.93,4.76-11.59,4.76c-4.55,0-8.38-1.55-11.48-4.76
			c-3.1-3.1-4.66-6.93-4.66-11.59C186.92,36.79,188.48,32.96,191.58,29.76z"/>
	</g>
</g>
<path class="st0" d="M225.42,71.47l5.59,5.59c0.48,0.48,1.26,0.48,1.75,0l5.59-5.59c0.51-0.51,0.56-1.31,0.11-1.88
	c-0.87-1.09-2.75-2.6-6.57-2.6s-5.71,1.51-6.57,2.6C224.86,70.16,224.91,70.96,225.42,71.47z"/>
<g>
	<path class="st0" d="M298.12,42.44c0.5-0.57,0.5-1.42,0-2c-1.03-1.18-2.93-3.32-5.35-5.84v3.51v10.17
		C295.19,45.76,297.09,43.63,298.12,42.44z"/>
	<path class="st0" d="M335.66,27.18c-1.83-3.33-4.32-6.06-7.45-8.17c-1.78-1.19-3.75-2.11-5.9-2.77c-2.15-0.66-4.38-0.99-6.69-0.99
		c-2.31,0-4.54,0.33-6.69,0.99c-2.15,0.66-4.11,1.58-5.9,2.77l-0.05-2.27c-0.02-0.83-0.69-1.49-1.52-1.49h-7.18
		c-0.84,0-1.52,0.68-1.52,1.52v16.4c2.81,2.89,5,5.35,6.11,6.62c0.82,0.94,0.82,2.37,0,3.31c-1.1,1.27-3.3,3.73-6.11,6.62V66.4
		c0,0.84,0.68,1.52,1.52,1.52h7.15c0.84,0,1.52-0.68,1.52-1.52v-9.27V38.12c0-1.72,0.33-3.35,0.99-4.9c0.66-1.55,1.56-2.9,2.68-4.06
		c1.13-1.15,2.47-2.06,4.03-2.72c1.56-0.66,3.2-0.99,4.92-0.99c1.72,0,3.35,0.33,4.87,0.99c1.52,0.66,2.87,1.57,4.03,2.72
		c1.16,1.16,2.07,2.51,2.73,4.06c0.66,1.55,1,3.18,1,4.9v19.01v9.27c0,0.84,0.68,1.52,1.52,1.52h7.15c0.84,0,1.52-0.68,1.52-1.52
		V38.12C338.41,34.16,337.49,30.51,335.66,27.18z"/>
</g>
<g>
	<path class="st0" d="M164.88,43.1c-0.82-0.94-0.82-2.37,0-3.31c0.96-1.1,2.76-3.12,5.06-5.53c-0.28-0.94-0.6-1.87-0.99-2.77
		c-1.35-3.17-3.22-5.94-5.59-8.32c-2.38-2.38-5.17-4.26-8.37-5.64s-6.62-2.08-10.25-2.08s-7.03,0.69-10.2,2.08
		c-3.17,1.39-5.94,3.27-8.32,5.64c-2.38,2.38-4.26,5.15-5.64,8.32c-1.39,3.17-2.08,6.57-2.08,10.2c0,3.63,0.69,7.05,2.08,10.25
		c1.39,3.2,3.27,5.99,5.64,8.37c2.38,2.38,5.15,4.26,8.32,5.64c3.17,1.39,6.57,2.08,10.2,2.08c3.04,0,5.91-0.49,8.61-1.47
		c2.71-0.98,5.18-2.32,7.43-4.02v39.02c0,0.84,0.68,1.52,1.52,1.52h7.15c0.84,0,1.52-0.68,1.52-1.52V49.72
		C168.18,46.83,165.99,44.37,164.88,43.1z M160.79,41.83c0,2.19-0.43,4.26-1.29,6.21c-0.86,1.95-2.01,3.66-3.47,5.12
		c-1.45,1.46-3.15,2.6-5.1,3.43c-1.95,0.83-4.01,1.24-6.19,1.24c-2.18,0-4.24-0.41-6.19-1.24c-1.95-0.83-3.65-1.97-5.1-3.43
		c-1.45-1.46-2.61-3.16-3.47-5.12c-0.86-1.95-1.29-4.05-1.29-6.31c0-2.18,0.43-4.25,1.29-6.21c0.86-1.95,2.01-3.66,3.47-5.12
		c1.45-1.46,3.15-2.62,5.1-3.47c1.95-0.86,4.01-1.29,6.19-1.29c2.24,0,4.34,0.43,6.29,1.29c1.95,0.86,3.65,2.02,5.1,3.47
		c1.45,1.46,2.59,3.16,3.42,5.12c0.82,1.95,1.24,4.02,1.24,6.21V41.83z"/>
	<path class="st0" d="M165.64,42.45c1.03,1.18,2.93,3.31,5.35,5.84v-6.5v-0.1c0-2.18-0.25-4.28-0.74-6.3
		c-2.07,2.18-3.69,4.01-4.61,5.06C165.14,41.02,165.14,41.87,165.64,42.45z"/>
</g>
</svg>
