<?xml version="1.0" encoding="UTF-8"?><svg id="Layer_1" xmlns="http://www.w3.org/2000/svg" viewBox="0 0 280 120"><defs><style>.cls-1{fill:#ff3d00;}.cls-2{fill:#121216;}</style></defs><rect class="cls-2" x="55.89" y="52.45" width="5.84" height="21.77"/><path class="cls-2" d="M67.73,54.72c1.81-1.82,4.3-2.73,7.48-2.73s5.67,.91,7.45,2.73c1.79,1.82,2.69,4.2,2.69,7.13v12.36h-5.83v-11.9c0-1.64-.36-2.91-1.09-3.82-.72-.91-1.8-1.37-3.22-1.37s-2.49,.46-3.22,1.37c-.73,.91-1.09,2.18-1.09,3.82v11.9h-5.88v-12.36c0-2.93,.91-5.31,2.71-7.13"/><path class="cls-2" d="M100.98,74.22c-1.14,.25-2.24,.37-3.29,.37-2.81,0-5.06-.81-6.74-2.43-1.68-1.62-2.52-3.99-2.52-7.11v-19.59h5.88v6.99h6.53v4.82h-6.53v7.18c0,1.82,.36,3.1,1.09,3.84,.72,.74,2.06,1.11,4.01,1.11l1.58-.05v4.86Z"/><path class="cls-2" d="M107.89,65.33c.34,1.45,1,2.57,1.99,3.36,.99,.79,2.19,1.18,3.61,1.18,1.26,0,2.28-.18,3.06-.53,.77-.35,1.37-.92,1.81-1.69h5.42c-.65,2.29-1.91,4.04-3.8,5.26-1.88,1.22-4,1.83-6.34,1.83-2.22,0-4.19-.49-5.91-1.46-1.71-.97-3.04-2.32-3.98-4.05-.94-1.73-1.41-3.69-1.41-5.88s.48-4.11,1.44-5.84c.96-1.73,2.29-3.08,3.98-4.05,1.7-.97,3.61-1.46,5.74-1.46s3.94,.49,5.6,1.48c1.67,.99,2.97,2.35,3.91,4.08,.94,1.73,1.41,3.66,1.41,5.79,0,.77-.03,1.43-.09,1.99h-16.44Zm-.05-4.08h11.07c-.18-1.27-.78-2.32-1.78-3.15-1-.83-2.21-1.25-3.64-1.25s-2.67,.4-3.66,1.2c-.99,.8-1.65,1.87-1.99,3.2"/><path class="cls-2" d="M129.49,54.72c1.81-1.82,4.3-2.73,7.48-2.73s5.66,.91,7.45,2.73c1.79,1.82,2.69,4.2,2.69,7.13v12.36h-5.83v-11.9c0-1.64-.36-2.91-1.09-3.82-.73-.91-1.8-1.37-3.22-1.37s-2.49,.46-3.22,1.37c-.73,.91-1.09,2.18-1.09,3.82v11.9h-5.88v-12.36c0-2.93,.9-5.31,2.71-7.13"/><path class="cls-2" d="M149.19,67.69h5.6c.12,.8,.5,1.41,1.13,1.83,.63,.42,1.38,.63,2.24,.63s1.49-.17,1.97-.51c.48-.34,.72-.79,.72-1.34,0-.62-.3-1.1-.9-1.44-.6-.34-1.57-.69-2.89-1.06-1.48-.43-2.72-.88-3.7-1.34s-1.84-1.17-2.55-2.13c-.71-.96-1.07-2.22-1.07-3.8,0-1.23,.33-2.35,.97-3.33,.65-.99,1.58-1.77,2.8-2.34,1.22-.57,2.65-.86,4.28-.86,2.35,0,4.26,.6,5.74,1.81,1.48,1.2,2.3,2.86,2.45,4.96h-5.51c-.12-.65-.43-1.17-.93-1.57-.49-.4-1.13-.6-1.9-.6s-1.34,.18-1.81,.55c-.46,.37-.69,.83-.69,1.39,0,.59,.29,1.03,.88,1.34,.59,.31,1.56,.68,2.92,1.11,1.51,.46,2.77,.93,3.77,1.39,1,.46,1.87,1.17,2.59,2.13,.73,.96,1.09,2.22,1.09,3.8,0,1.27-.37,2.38-1.11,3.36-.74,.97-1.74,1.73-3.01,2.27-1.27,.54-2.64,.81-4.12,.81-2.5,0-4.58-.66-6.25-1.97-1.67-1.31-2.58-3-2.73-5.07"/><path class="cls-2" d="M173.27,65.33c.34,1.45,1,2.57,1.99,3.36,.99,.79,2.19,1.18,3.61,1.18,1.27,0,2.28-.18,3.05-.53,.77-.35,1.37-.92,1.81-1.69h5.42c-.65,2.29-1.91,4.04-3.8,5.26-1.88,1.22-4,1.83-6.34,1.83-2.22,0-4.19-.49-5.91-1.46-1.71-.97-3.04-2.32-3.98-4.05-.94-1.73-1.41-3.69-1.41-5.88s.48-4.11,1.43-5.84c.96-1.73,2.29-3.08,3.98-4.05,1.7-.97,3.61-1.46,5.74-1.46s3.93,.49,5.6,1.48c1.67,.99,2.97,2.35,3.91,4.08,.94,1.73,1.41,3.66,1.41,5.79,0,.77-.03,1.43-.09,1.99h-16.44Zm-.05-4.08h11.07c-.18-1.27-.78-2.32-1.78-3.15-1.01-.83-2.22-1.25-3.64-1.25s-2.67,.4-3.66,1.2c-.99,.8-1.65,1.87-1.99,3.2"/><path class="cls-2" d="M217.53,65.33c.34,1.45,1,2.57,1.99,3.36,.99,.79,2.19,1.18,3.61,1.18,1.26,0,2.28-.18,3.06-.53,.77-.35,1.37-.92,1.8-1.69h5.42c-.65,2.29-1.91,4.04-3.8,5.26-1.88,1.22-4,1.83-6.34,1.83-2.22,0-4.19-.49-5.91-1.46-1.71-.97-3.04-2.32-3.98-4.05-.94-1.73-1.41-3.69-1.41-5.88s.48-4.11,1.44-5.84c.96-1.73,2.29-3.08,3.98-4.05,1.7-.97,3.61-1.46,5.74-1.46s3.94,.49,5.6,1.48c1.67,.99,2.97,2.35,3.91,4.08,.94,1.73,1.41,3.66,1.41,5.79,0,.77-.03,1.43-.09,1.99h-16.44Zm-.05-4.08h11.07c-.18-1.27-.78-2.32-1.78-3.15-1-.83-2.21-1.25-3.64-1.25s-2.67,.4-3.66,1.2c-.99,.8-1.65,1.87-1.99,3.2"/><polygon class="cls-2" points="206.16 52.45 201 67.76 200.9 67.76 195.81 52.45 189.43 52.45 197.9 74.26 194.39 83.39 200.45 83.39 212.35 52.45 206.16 52.45"/><path class="cls-1" d="M61.72,36.67c-8.71,0-15.78,7.07-15.78,15.78h5.88c0-5.47,4.43-9.9,9.9-9.9v-5.88Z"/></svg>